<?xml version="1.0" encoding="utf-8"?>
<!-- Generator: Adobe Illustrator 28.3.0, SVG Export Plug-In . SVG Version: 6.00 Build 0)  -->
<svg version="1.1" xmlns="http://www.w3.org/2000/svg" xmlns:xlink="http://www.w3.org/1999/xlink" x="0px" y="0px"
	 viewBox="0 0 100 100" style="enable-background:new 0 0 100 100;" xml:space="preserve">
<style type="text/css">
	.st0{display:none;}
	.st1{fill:#3FAFEC;}
</style>
<g id="Ebene_1" class="st0">
	
		<image style="display:inline;overflow:visible;" width="400" height="475" xlink:href="TENTE T White.png"  transform="matrix(1 0 0 1 -150 -191)">
	</image>
</g>
<g id="Ebene_2">
	<g>
		<path class="st1" d="M92.8,21.2H6.8C4.4,20,4,16,4,11.5C3.8,6.5,4.6,3,6.8,1.7h86.1C95,2.2,96.2,5,96,11.5
			C95.9,16.8,95.1,20.7,92.8,21.2z"/>
		<path class="st1" d="M62.3,95.2c-0.6,3-5.1,3.1-12.1,3.1c-6.9,0-11.4-0.9-12.1-3.1V38.1c0.1-2,4.7-2.9,12.1-3.1
			c7.8,0.1,11.7,1.2,12.1,3.1V95.2z"/>
	</g>
</g>
</svg>
